<svg width="388" height="112" viewBox="0 0 388 112" fill="none" xmlns="http://www.w3.org/2000/svg">
<path d="M119.352 70L141.816 19.6H153.336L175.872 70H163.632L145.2 25.504H149.808L131.304 70H119.352ZM130.584 59.2L133.68 50.344H159.6L162.768 59.2H130.584ZM196.589 70.576C192.941 70.576 189.653 69.76 186.725 68.128C183.797 66.448 181.469 64.12 179.741 61.144C178.061 58.168 177.221 54.664 177.221 50.632C177.221 46.552 178.061 43.024 179.741 40.048C181.469 37.072 183.797 34.768 186.725 33.136C189.653 31.504 192.941 30.688 196.589 30.688C199.853 30.688 202.709 31.408 205.157 32.848C207.605 34.288 209.501 36.472 210.845 39.4C212.189 42.328 212.861 46.072 212.861 50.632C212.861 55.144 212.213 58.888 210.917 61.864C209.621 64.792 207.749 66.976 205.301 68.416C202.901 69.856 199.997 70.576 196.589 70.576ZM198.533 61.36C200.357 61.36 202.013 60.928 203.501 60.064C204.989 59.2 206.165 57.976 207.029 56.392C207.941 54.76 208.397 52.84 208.397 50.632C208.397 48.376 207.941 46.456 207.029 44.872C206.165 43.288 204.989 42.064 203.501 41.2C202.013 40.336 200.357 39.904 198.533 39.904C196.661 39.904 194.981 40.336 193.493 41.2C192.005 42.064 190.805 43.288 189.893 44.872C189.029 46.456 188.597 48.376 188.597 50.632C188.597 52.84 189.029 54.76 189.893 56.392C190.805 57.976 192.005 59.2 193.493 60.064C194.981 60.928 196.661 61.36 198.533 61.36ZM208.685 70V62.08L208.901 50.56L208.181 39.112V16.576H219.413V70H208.685ZM229.809 70V31.264H241.041V70H229.809ZM235.425 25.864C233.361 25.864 231.681 25.264 230.385 24.064C229.089 22.864 228.441 21.376 228.441 19.6C228.441 17.824 229.089 16.336 230.385 15.136C231.681 13.936 233.361 13.336 235.425 13.336C237.489 13.336 239.169 13.912 240.465 15.064C241.761 16.168 242.409 17.608 242.409 19.384C242.409 21.256 241.761 22.816 240.465 24.064C239.217 25.264 237.537 25.864 235.425 25.864ZM268.097 70.576C264.449 70.576 261.161 69.76 258.233 68.128C255.305 66.448 252.977 64.12 251.249 61.144C249.569 58.168 248.729 54.664 248.729 50.632C248.729 46.552 249.569 43.024 251.249 40.048C252.977 37.072 255.305 34.768 258.233 33.136C261.161 31.504 264.449 30.688 268.097 30.688C271.361 30.688 274.217 31.408 276.665 32.848C279.113 34.288 281.009 36.472 282.353 39.4C283.697 42.328 284.369 46.072 284.369 50.632C284.369 55.144 283.721 58.888 282.425 61.864C281.129 64.792 279.257 66.976 276.809 68.416C274.409 69.856 271.505 70.576 268.097 70.576ZM270.041 61.36C271.865 61.36 273.521 60.928 275.009 60.064C276.497 59.2 277.673 57.976 278.537 56.392C279.449 54.76 279.905 52.84 279.905 50.632C279.905 48.376 279.449 46.456 278.537 44.872C277.673 43.288 276.497 42.064 275.009 41.2C273.521 40.336 271.865 39.904 270.041 39.904C268.169 39.904 266.489 40.336 265.001 41.2C263.513 42.064 262.313 43.288 261.401 44.872C260.537 46.456 260.105 48.376 260.105 50.632C260.105 52.84 260.537 54.76 261.401 56.392C262.313 57.976 263.513 59.2 265.001 60.064C266.489 60.928 268.169 61.36 270.041 61.36ZM280.193 70V62.08L280.409 50.56L279.689 39.112V16.576H290.921V70H280.193ZM325.077 70V62.44L324.357 60.784V47.248C324.357 44.848 323.613 42.976 322.125 41.632C320.685 40.288 318.453 39.616 315.429 39.616C313.365 39.616 311.325 39.952 309.309 40.624C307.341 41.248 305.661 42.112 304.269 43.216L300.237 35.368C302.349 33.88 304.893 32.728 307.869 31.912C310.845 31.096 313.869 30.688 316.941 30.688C322.845 30.688 327.429 32.08 330.693 34.864C333.957 37.648 335.589 41.992 335.589 47.896V70H325.077ZM313.269 70.576C310.245 70.576 307.653 70.072 305.493 69.064C303.333 68.008 301.677 66.592 300.525 64.816C299.373 63.04 298.797 61.048 298.797 58.84C298.797 56.536 299.349 54.52 300.453 52.792C301.605 51.064 303.405 49.72 305.853 48.76C308.301 47.752 311.493 47.248 315.429 47.248H325.725V53.8H316.653C314.013 53.8 312.189 54.232 311.181 55.096C310.221 55.96 309.741 57.04 309.741 58.336C309.741 59.776 310.293 60.928 311.397 61.792C312.549 62.608 314.109 63.016 316.077 63.016C317.949 63.016 319.629 62.584 321.117 61.72C322.605 60.808 323.685 59.488 324.357 57.76L326.085 62.944C325.269 65.44 323.781 67.336 321.621 68.632C319.461 69.928 316.677 70.576 313.269 70.576ZM358.786 70.576C355.474 70.576 352.282 70.192 349.21 69.424C346.186 68.608 343.786 67.6 342.01 66.4L345.754 58.336C347.53 59.44 349.618 60.352 352.018 61.072C354.466 61.744 356.866 62.08 359.218 62.08C361.81 62.08 363.634 61.768 364.69 61.144C365.794 60.52 366.346 59.656 366.346 58.552C366.346 57.64 365.914 56.968 365.05 56.536C364.234 56.056 363.13 55.696 361.738 55.456C360.346 55.216 358.81 54.976 357.13 54.736C355.498 54.496 353.842 54.184 352.162 53.8C350.482 53.368 348.946 52.744 347.554 51.928C346.162 51.112 345.034 50.008 344.17 48.616C343.354 47.224 342.946 45.424 342.946 43.216C342.946 40.768 343.642 38.608 345.034 36.736C346.474 34.864 348.538 33.4 351.226 32.344C353.914 31.24 357.13 30.688 360.874 30.688C363.514 30.688 366.202 30.976 368.938 31.552C371.674 32.128 373.954 32.968 375.778 34.072L372.034 42.064C370.162 40.96 368.266 40.216 366.346 39.832C364.474 39.4 362.65 39.184 360.874 39.184C358.378 39.184 356.554 39.52 355.402 40.192C354.25 40.864 353.674 41.728 353.674 42.784C353.674 43.744 354.082 44.464 354.898 44.944C355.762 45.424 356.89 45.808 358.282 46.096C359.674 46.384 361.186 46.648 362.818 46.888C364.498 47.08 366.178 47.392 367.858 47.824C369.538 48.256 371.05 48.88 372.394 49.696C373.786 50.464 374.914 51.544 375.778 52.936C376.642 54.28 377.074 56.056 377.074 58.264C377.074 60.664 376.354 62.8 374.914 64.672C373.474 66.496 371.386 67.936 368.65 68.992C365.962 70.048 362.674 70.576 358.786 70.576Z" fill="black"/>
<path d="M96.9382 0.208503L124.257 1.03867e-05L95.4109 79.7898L68.0917 79.9983L96.9382 0.208503Z" fill="black"/>
<path d="M56.164 21.3132L83.4832 21.1047L60.8066 79.8949L33.4874 80.1034L56.164 21.3132Z" fill="black"/>
<path d="M14.7436 42.3562L42.0628 42.1443L27.5402 80.1452L0.220964 80.3571L14.7436 42.3562Z" fill="black"/>
</svg>
